<svg fill="none" height="1010" viewBox="0 0 178 1010" width="178" xmlns="http://www.w3.org/2000/svg" xmlns:xlink="http://www.w3.org/1999/xlink"><filter id="a" color-interpolation-filters="sRGB" filterUnits="userSpaceOnUse" height="1115.77" width="176.887" x=".613281" y="-52.8867"><feFlood flood-opacity="0" result="BackgroundImageFix"/><feColorMatrix in="SourceAlpha" result="hardAlpha" type="matrix" values="0 0 0 0 0 0 0 0 0 0 0 0 0 0 0 0 0 0 127 0"/><feOffset/><feGaussianBlur stdDeviation="25"/><feComposite in2="hardAlpha" operator="out"/><feColorMatrix type="matrix" values="0 0 0 0 0.709804 0 0 0 0 0.541176 0 0 0 0 0.345098 0 0 0 0.5 0"/><feBlend in2="BackgroundImageFix" mode="normal" result="effect1_dropShadow_1148_5907"/><feBlend in="SourceGraphic" in2="effect1_dropShadow_1148_5907" mode="normal" result="shape"/></filter><g filter="url(#a)"><path d="m53.5 943.5-.4391-.239-.0609.112v.127zm73.5-135 .439.239.061-.112v-.127zm0-570.5h.5v-.121l-.055-.108zm-73.4999-143h-.5v.121l.0553.1076zm0-97.88676-2.8868 2.88675332 2.8868 2.88674668 2.8867-2.88674617zm-.0001 1015.77676 2.8868-2.89-2.8868-2.89-2.8868 2.89zm.4391-69.151 73.4999-135-.878-.478-73.5001 135zm73.5609-135.239v-570.5h-1v570.5zm-.055-570.729-73.5002-142.9996-.8894.4572 73.4996 143.0004zm-73.4449-142.771v-95.00000638l-1-.00000009v95.00000647zm-.0001 915v-66.5h-1v66.5z" fill="#352a22"/></g></svg>

