<svg fill="none" height="1010" viewBox="0 0 178 1010" width="178" xmlns="http://www.w3.org/2000/svg" xmlns:xlink="http://www.w3.org/1999/xlink"><filter id="a" color-interpolation-filters="sRGB" filterUnits="userSpaceOnUse" height="1115.77" width="176.887" x=".5" y="-52.8867"><feFlood flood-opacity="0" result="BackgroundImageFix"/><feColorMatrix in="SourceAlpha" result="hardAlpha" type="matrix" values="0 0 0 0 0 0 0 0 0 0 0 0 0 0 0 0 0 0 127 0"/><feOffset/><feGaussianBlur stdDeviation="25"/><feComposite in2="hardAlpha" operator="out"/><feColorMatrix type="matrix" values="0 0 0 0 0.709804 0 0 0 0 0.541176 0 0 0 0 0.345098 0 0 0 0.5 0"/><feBlend in2="BackgroundImageFix" mode="normal" result="effect1_dropShadow_1148_5906"/><feBlend in="SourceGraphic" in2="effect1_dropShadow_1148_5906" mode="normal" result="shape"/></filter><g filter="url(#a)"><path d="m124.5 943.5.439-.239.061.112v.127zm-73.5-135-.4392.239-.0608-.112v-.127zm-.0001-570.5h-.5v-.121l.0553-.108zm73.5001-143h.5v.121l-.055.1076zm0-97.88676 2.887 2.88675286-2.887 2.88674714-2.887-2.88674571zm0 1015.77676-2.887-2.89 2.887-2.89 2.887 2.89zm-.439-69.151-73.5002-135 .8783-.478 73.4999 135zm-73.561-135.239-.0001-570.5h1l.0001 570.5zm.0552-570.729 73.4998-142.9996.89.4572-73.5004 143.0004zm73.4448-142.771v-95.0000063l1-.00000025v95.00000655zm0 915v-66.5h1v66.5z" fill="#352a22"/></g></svg>

