<svg width="542" height="223" viewBox="0 0 542 223" fill="none" xmlns="http://www.w3.org/2000/svg">
<g filter="url(#filter0_di_1136_5714)">
<path d="M197.732 106H208.748L200.906 79.2384L208.375 61.8122H197.794L190.575 81.2299V61.8122H180.181V106H190.575V93.615L193.189 87.7648L197.732 106ZM215.019 106H226.595L229.147 83.7194C229.458 80.8565 229.458 78.6783 229.52 76.5622H229.831C229.956 78.6783 229.894 80.8565 230.205 83.7194L232.819 106H244.395L249.374 61.8122H239.914L238.171 86.5823C238.047 88.5116 237.922 91.3122 237.922 93.5527H237.673C237.424 91.3745 237.3 89.3829 237.113 87.4536L234.312 61.8122H225.101L222.301 87.4536L221.741 93.5527H221.43C221.492 91.3122 221.305 88.5116 221.181 86.5823L219.438 61.8122H210.04L215.019 106ZM263.63 98.2205V87.1424H274.023V79.3629H263.63V69.5917H274.832V61.8122H253.236V106H275.268V98.2205H263.63ZM279.067 106H288.091V87.827C288.091 84.8396 287.966 81.9768 287.904 79.1761H288.091C288.589 81.2922 289.273 83.4704 290.02 85.8354L296.929 106H306.762V61.8122H297.8V76.6867C297.8 79.674 297.862 82.7236 297.987 85.7732H297.8C297.302 83.8439 296.617 81.7278 296.057 79.674L290.02 61.8122H279.067V106ZM336.206 61.8122H309.32V70.5253H317.598V106H327.929V70.5253H336.206V61.8122ZM352.967 106H363.423L354.959 61.8122H341.204L332.802 106H343.196L344.441 96.9135H351.722L352.967 106ZM345.436 89.5696L347.241 76.3133C347.49 74.3217 347.801 72.7036 347.988 70.2763H348.175C348.424 72.7036 348.673 74.3217 348.922 76.3133L350.726 89.5696H345.436ZM75.4856 161.058C84.1365 161.058 89.3643 156.577 89.3643 148.175V143.258L78.7841 141.205V148.175C78.7841 151.349 77.6016 153.03 75.4856 153.03C73.3073 153.03 72.1871 151.162 72.1871 147.553V128.197C72.1871 124.588 73.3073 122.72 75.5478 122.72C77.6639 122.72 78.7219 124.276 78.7219 127.326V134.047L89.4265 132.118V127.077C89.4265 118.986 84.4476 114.754 75.7346 114.754C66.6481 114.754 61.4824 119.671 61.4824 129.006V147.179C61.4824 156.515 66.3369 161.058 75.4856 161.058ZM106.796 161.058C115.758 161.058 121.235 155.83 121.235 146.495V129.317C121.235 119.982 115.758 114.754 106.796 114.754C97.8343 114.754 92.3575 119.982 92.3575 129.317V146.495C92.3575 155.83 97.8343 161.058 106.796 161.058ZM106.796 153.092C104.431 153.092 103.062 151.287 103.062 147.864V127.948C103.062 124.525 104.431 122.72 106.796 122.72C109.161 122.72 110.53 124.525 110.53 127.948V147.864C110.53 151.287 109.161 153.092 106.796 153.092ZM125.634 160H134.284V140.458C134.284 136.475 134.284 132.305 134.035 128.446H134.347C134.471 130.189 134.782 132.243 135.031 134.234L139.201 160H145.798L149.843 134.234C150.155 132.243 150.404 130.313 150.59 128.446H150.839C150.653 132.305 150.653 136.475 150.653 140.458V160H159.428V115.812H146.047L143.309 134.421C142.997 136.724 142.686 139.4 142.686 140.893H142.437C142.437 139.4 142.126 136.724 141.815 134.421L139.014 115.812H125.634V160ZM165.139 160H173.79V140.458C173.79 136.475 173.79 132.305 173.541 128.446H173.852C173.977 130.189 174.288 132.243 174.537 134.234L178.706 160H185.304L189.349 134.234C189.66 132.243 189.909 130.313 190.096 128.446H190.345C190.158 132.305 190.158 136.475 190.158 140.458V160H198.933V115.812H185.552L182.814 134.421C182.503 136.724 182.192 139.4 182.192 140.893H181.943C181.943 139.4 181.632 136.724 181.32 134.421L178.52 115.812H165.139V160ZM204.271 115.812V148.673C204.271 156.453 209.063 161.058 217.839 161.058C226.552 161.058 231.406 156.39 231.406 148.673V115.812H221.075V148.3C221.075 150.913 219.892 152.345 217.839 152.345C215.785 152.345 214.665 150.913 214.665 148.3V115.812H204.271ZM236.735 160H245.759V141.827C245.759 138.84 245.635 135.977 245.573 133.176H245.759C246.257 135.292 246.942 137.47 247.689 139.835L254.597 160H264.43V115.812H255.468V130.687C255.468 133.674 255.53 136.724 255.655 139.773H255.468C254.97 137.844 254.286 135.728 253.726 133.674L247.689 115.812H236.735V160ZM280.556 160V115.812H270.163V160H280.556ZM309.981 115.812H283.095V124.525H291.372V160H301.703V124.525H309.981V115.812ZM320.944 160H331.337V145.686L340.61 115.812H329.906L327.105 129.878C326.669 132.118 326.483 134.234 326.296 136.537H326.109C325.923 134.234 325.736 132.118 325.238 129.878L322.188 115.812H311.484L320.944 145.686V160ZM367.199 160H378.028L372.116 139.898C375.227 138.155 377.095 134.919 377.095 129.878V128.073C377.095 120.48 373.174 115.812 363.091 115.812H350.146V160H360.54V142.449H363.029L367.199 160ZM360.54 136.101V122.72H362.345C365.332 122.72 366.39 123.965 366.39 127.45V130.562C366.39 134.359 365.394 136.101 362.345 136.101H360.54ZM400.039 160H410.495L402.031 115.812H388.277L379.875 160H390.268L391.513 150.913H398.795L400.039 160ZM392.509 143.57L394.314 130.313C394.562 128.322 394.874 126.704 395.06 124.276H395.247C395.496 126.704 395.745 128.322 395.994 130.313L397.799 143.57H392.509ZM424.356 160V115.812H413.963V160H424.356ZM441.458 161.058C450.296 161.058 454.963 156.266 454.963 150.229V146.121C454.963 141.578 453.594 138.715 448.553 135.728L441.52 131.558C439.84 130.562 438.72 129.069 438.72 127.264V125.397C438.72 123.716 439.715 122.347 441.52 122.347C443.823 122.347 444.57 124.152 444.57 126.268V131.62L454.963 129.753V126.517C454.963 117.679 449.549 114.754 441.52 114.754C434.55 114.754 428.326 118.053 428.326 125.894V128.259C428.326 133.114 429.882 136.288 434.488 139.026L441.583 143.258C443.948 144.69 444.383 145.81 444.383 147.926V149.855C444.383 151.598 443.636 153.216 441.52 153.216C439.404 153.216 438.533 151.474 438.533 148.797V143.258L427.953 145.25V148.735C427.953 156.017 432.932 161.058 441.458 161.058ZM468.845 152.22V141.142H479.239V133.363H468.845V123.592H480.048V115.812H458.452V160H480.484V152.22H468.845Z" fill="#C9975B"/>
</g>
<defs>
<filter id="filter0_di_1136_5714" x="0.0649986" y="0.394833" width="541.837" height="222.081" filterUnits="userSpaceOnUse" color-interpolation-filters="sRGB">
<feFlood flood-opacity="0" result="BackgroundImageFix"/>
<feColorMatrix in="SourceAlpha" type="matrix" values="0 0 0 0 0 0 0 0 0 0 0 0 0 0 0 0 0 0 127 0" result="hardAlpha"/>
<feOffset/>
<feGaussianBlur stdDeviation="30.7087"/>
<feComposite in2="hardAlpha" operator="out"/>
<feColorMatrix type="matrix" values="0 0 0 0 0.815686 0 0 0 0 0.658824 0 0 0 0 0.458824 0 0 0 0.35 0"/>
<feBlend mode="normal" in2="BackgroundImageFix" result="effect1_dropShadow_1136_5714"/>
<feBlend mode="normal" in="SourceGraphic" in2="effect1_dropShadow_1136_5714" result="shape"/>
<feColorMatrix in="SourceAlpha" type="matrix" values="0 0 0 0 0 0 0 0 0 0 0 0 0 0 0 0 0 0 127 0" result="hardAlpha"/>
<feOffset dy="0.818899"/>
<feComposite in2="hardAlpha" operator="arithmetic" k2="-1" k3="1"/>
<feColorMatrix type="matrix" values="0 0 0 0 1 0 0 0 0 1 0 0 0 0 1 0 0 0 0.5 0"/>
<feBlend mode="normal" in2="shape" result="effect2_innerShadow_1136_5714"/>
</filter>
</defs>
</svg>
