<svg width="19" height="18" viewBox="0 0 19 18" fill="none" xmlns="http://www.w3.org/2000/svg">
<path d="M9.40934 7.68165e-07C4.21066 -0.00205061 0 4.10482 0 9.17378C0 13.1822 2.63403 16.5895 6.30232 17.8409C6.79633 17.9619 6.72065 17.6193 6.72065 17.3855V15.7956C3.868 16.1218 3.75238 14.2797 3.56108 13.972C3.17428 13.3278 2.25984 13.1637 2.53312 12.856C3.18269 12.5298 3.84488 12.9381 4.61217 14.0438C5.16715 14.8458 6.24977 14.7105 6.79843 14.5771C6.91826 14.095 7.17472 13.6643 7.52789 13.3299C4.57223 12.8129 3.34036 11.0528 3.34036 8.96043C3.34036 7.945 3.68301 7.01162 4.35571 6.25877C3.92686 5.01768 4.39565 3.95506 4.45871 3.79711C5.68008 3.69044 6.94979 4.65048 7.04859 4.72638C7.74231 4.54381 8.53483 4.4474 9.42195 4.4474C10.3133 4.4474 11.1079 4.54791 11.8079 4.73254C12.0455 4.55612 13.2227 3.73146 14.3579 3.83198C14.4188 3.98994 14.8771 5.02794 14.4735 6.25261C15.1546 7.00752 15.5014 7.94911 15.5014 8.96659C15.5014 11.0631 14.2612 12.8252 11.2971 13.334C11.551 13.5776 11.7526 13.8682 11.8901 14.1887C12.0276 14.5092 12.0983 14.8533 12.098 15.2007V17.5085C12.1148 17.6932 12.098 17.8757 12.4133 17.8757C16.1363 16.6511 18.8166 13.2191 18.8166 9.17583C18.8166 4.10482 14.6038 7.68165e-07 9.40934 7.68165e-07Z" fill="#C3C0BA"/>
</svg>
