<svg width="118" height="18" viewBox="0 0 118 18" fill="none" xmlns="http://www.w3.org/2000/svg">
<path d="M9.82031 0L19.8883 5.78569V11.5714L9.82031 5.78569V0Z" fill="url(#paint0_linear_1136_5650)"/>
<path d="M9.82031 18L19.8883 12.2727V6.54541L9.82031 12.2727V18Z" fill="url(#paint1_linear_1136_5650)"/>
<path d="M9.81935 0L0 5.78569V11.5714L9.81935 5.78569V0Z" fill="url(#paint2_linear_1136_5650)"/>
<path d="M9.81935 18L0 12.2727V6.54541L9.81935 12.2727V18Z" fill="url(#paint3_linear_1136_5650)"/>
<path fill-rule="evenodd" clip-rule="evenodd" d="M31.9902 14.6297H33.6794V9.39707H33.6802V8.02433H33.6794V3.22778H31.9902V14.6297ZM35.471 9.39707H35.4703V8.02433H35.471L38.5082 3.22778H40.368L36.8702 8.63803V8.67033L40.5898 14.6297H38.6788L35.471 9.39707ZM51.869 3.22778L49.5144 11.5935C49.3438 12.2233 49.2584 12.8047 49.2584 12.8047H49.2243C49.2243 12.8047 49.1561 12.2072 49.0025 11.5935L46.8697 3.22778H45.1293L48.2006 14.6297H50.1628L52.2444 7.23298C52.4492 6.50623 52.6027 5.61798 52.6027 5.61798H52.6368C52.6368 5.61798 52.7904 6.50623 52.9952 7.23298L55.0768 14.6297H57.039L60.1956 3.22778H58.4552L56.2371 11.5935C56.0664 12.2072 56.0153 12.8047 56.0153 12.8047H55.9811C55.9811 12.8047 55.8958 12.2233 55.7252 11.5935L53.3705 3.22778H51.869ZM73.2527 14.6297H65.9669V3.22778H72.9626V4.61668H67.6561V8.18583H71.973V9.57472H67.6561V13.2408H73.2527V14.6297ZM79.3311 14.6297H81.0203V7.23298C81.0203 6.58698 80.9009 5.56953 80.9009 5.56953H80.935C80.935 5.56953 81.4981 6.60313 81.9417 7.23298L87.3164 14.6297H88.9715V3.22778H87.2823V10.6406C87.2823 11.2705 87.4017 12.2879 87.4017 12.2879H87.3676C87.3676 12.2879 86.8045 11.2543 86.3609 10.6406L81.0032 3.22778H79.3311V14.6297ZM100.094 14.6297H98.4044V4.61668H94.2752V3.22778H104.223V4.61668H100.094V14.6297ZM115.976 14.6297H117.733L113.399 3.22778H111.625L107.291 14.6297H109.031L110.208 11.4H110.207L110.669 10.0269L110.669 10.0269L112.017 6.40933C112.222 5.82793 112.495 4.79433 112.495 4.79433H112.529C112.529 4.79433 112.785 5.82793 112.99 6.40933L114.32 10.0269H114.321L114.779 11.392L115.976 14.6297Z" fill="white"/>
<defs>
<linearGradient id="paint0_linear_1136_5650" x1="28.4735" y1="5.75343" x2="3.64647" y2="5.75343" gradientUnits="userSpaceOnUse">
<stop stop-color="#996939"/>
<stop offset="1" stop-color="#D0A875"/>
</linearGradient>
<linearGradient id="paint1_linear_1136_5650" x1="14.8543" y1="18" x2="17.0473" y2="-3.93519" gradientUnits="userSpaceOnUse">
<stop stop-color="#272728"/>
<stop offset="1" stop-color="#4B4B4B"/>
</linearGradient>
<linearGradient id="paint2_linear_1136_5650" x1="9.87998" y1="2.37214" x2="0.415443" y2="10.2065" gradientUnits="userSpaceOnUse">
<stop stop-color="#996939"/>
<stop offset="1" stop-color="#D0A875"/>
</linearGradient>
<linearGradient id="paint3_linear_1136_5650" x1="4.90967" y1="18" x2="4.90967" y2="6.54541" gradientUnits="userSpaceOnUse">
<stop stop-color="#363636"/>
<stop offset="1" stop-color="#333232"/>
</linearGradient>
</defs>
</svg>
