<svg width="86" height="12" viewBox="0 0 86 12" fill="none" xmlns="http://www.w3.org/2000/svg">
<path fill-rule="evenodd" clip-rule="evenodd" d="M0 11.4019H1.6892V6.16929H1.69V4.79654H1.6892V0H0V11.4019ZM3.48078 6.16929H3.48008V4.79654H3.48078L6.51793 0H8.37776L4.87992 5.41024V5.44254L8.59958 11.4019H6.68856L3.48078 6.16929ZM19.8788 0L17.5241 8.36569C17.3535 8.99554 17.2682 9.57694 17.2682 9.57694H17.2341C17.2341 9.57694 17.1658 8.97939 17.0123 8.36569L14.8794 0H13.139L16.2103 11.4019H18.1725L20.2542 4.00519C20.4589 3.27845 20.6125 2.3902 20.6125 2.3902H20.6466C20.6466 2.3902 20.8002 3.27845 21.0049 4.00519L23.0866 11.4019H25.0488L28.2054 0H26.465L24.2468 8.36569C24.0762 8.97939 24.025 9.57694 24.025 9.57694H23.9909C23.9909 9.57694 23.9056 8.99554 23.735 8.36569L21.3803 0H19.8788ZM41.2624 11.4019H33.9767V0H40.9724V1.3889H35.6659V4.95804H39.9827V6.34694H35.6659V10.013H41.2624V11.4019ZM47.3409 11.4019H49.0301V4.00519C49.0301 3.3592 48.9106 2.34175 48.9106 2.34175H48.9448C48.9448 2.34175 49.5078 3.37535 49.9515 4.00519L55.3262 11.4019H56.9813V0H55.2921V7.41284C55.2921 8.04269 55.4115 9.06014 55.4115 9.06014H55.3774C55.3774 9.06014 54.8143 8.02654 54.3707 7.41284L49.013 0H47.3409V11.4019ZM68.1033 11.4019H66.4141V1.3889H62.285V0H72.2325V1.3889H68.1033V11.4019ZM83.9853 11.4019H85.7428L81.4089 0H79.6343L75.3004 11.4019H77.0408L78.2174 8.17217H78.2171L78.6788 6.79914L78.6789 6.79908L80.0268 3.18155C80.2315 2.60015 80.5045 1.56655 80.5045 1.56655H80.5387C80.5387 1.56655 80.7946 2.60015 80.9994 3.18155L82.3302 6.79908H82.3306L82.7889 8.1642L83.9853 11.4019Z" fill="white"/>
</svg>
