<svg width="170" height="13" viewBox="0 0 170 13" fill="none" xmlns="http://www.w3.org/2000/svg">
<path d="M16.4057 6.05074C15.6807 5.34409 14.8095 4.99092 13.7916 4.99092H3.70138C3.51398 4.99092 3.3532 4.92599 3.21873 4.79581C3.08426 4.66596 3.01719 4.50758 3.01719 4.32066V3.50448C3.01719 3.3261 3.08426 3.17165 3.21873 3.04147C3.3532 2.91161 3.51398 2.84636 3.70138 2.84636H16.7111C16.7437 2.84636 16.77 2.83619 16.7903 2.81586C16.8107 2.79586 16.8209 2.77323 16.8209 2.74897V0.312234C16.8209 0.279771 16.8107 0.255505 16.7903 0.239109C16.77 0.223042 16.7433 0.214844 16.7111 0.214844H3.70138C2.67526 0.214844 1.8017 0.568336 1.08102 1.27499C0.36034 1.98165 0 2.83423 0 3.83338V3.99177C0 4.99912 0.36034 5.85596 1.08102 6.56262C1.8017 7.26927 2.67526 7.62244 3.70138 7.62244H13.7916C13.9707 7.62244 14.1276 7.6854 14.2617 7.81132C14.3962 7.93724 14.4633 8.09365 14.4633 8.28056V9.09674C14.4633 9.28365 14.3962 9.44007 14.2617 9.56599C14.1272 9.69191 13.9704 9.75487 13.7916 9.75487H0.769668C0.745339 9.75487 0.722653 9.76503 0.702598 9.78536C0.682214 9.80569 0.672022 9.83225 0.672022 9.86472V12.3015C0.672022 12.3257 0.682214 12.3483 0.702598 12.3683C0.722982 12.3887 0.745339 12.3988 0.769668 12.3988H13.7916C14.8095 12.3988 15.6807 12.0437 16.4057 11.3328C17.1303 10.6222 17.4929 9.76733 17.4929 8.76817V8.60946C17.4926 7.6103 17.1303 6.7574 16.4057 6.05074Z" fill="white"/>
<path d="M38.3114 0.214844H35.4895C35.4652 0.214844 35.4425 0.223042 35.4224 0.239109C35.4021 0.255505 35.3919 0.279771 35.3919 0.312234V3.40677C35.3919 3.67467 35.2531 3.87798 34.9766 4.01603L29.3453 6.34291L23.714 4.01603C23.4372 3.87798 23.2988 3.675 23.2988 3.40677V0.312234C23.2988 0.279771 23.2905 0.255505 23.2744 0.239109C23.2577 0.223042 23.2333 0.214844 23.2008 0.214844H20.3789C20.3546 0.214844 20.3319 0.223042 20.3118 0.239109C20.2914 0.255505 20.2812 0.279771 20.2812 0.312234V3.85765C20.2812 4.38592 20.4279 4.86894 20.7212 5.30736C21.0144 5.74611 21.4132 6.07074 21.9182 6.28192L27.8306 8.75506V12.2887C27.8306 12.3211 27.8408 12.3477 27.8612 12.368C27.8816 12.3884 27.9079 12.3985 27.9405 12.3985H30.7623C30.7867 12.3985 30.809 12.3884 30.8294 12.368C30.8498 12.3477 30.86 12.3215 30.86 12.2887V8.75538L36.7724 6.29438C37.2771 6.07501 37.6765 5.74808 37.9695 5.31359C38.2627 4.8791 38.4091 4.39805 38.4091 3.86978V0.312234C38.4091 0.279771 38.3989 0.255505 38.3785 0.239109C38.3581 0.223042 38.3357 0.214844 38.3114 0.214844Z" fill="white"/>
<path d="M59.2719 0.214844H56.45C56.4175 0.214844 56.3928 0.225009 56.3767 0.24534C56.3603 0.265671 56.3524 0.287969 56.3524 0.312234V9.76667H55.1674C54.9475 9.76667 54.7601 9.66928 54.6056 9.47417L49.1331 1.49404C48.5465 0.673924 47.7361 0.247307 46.7021 0.214844H41.9871C41.9545 0.214844 41.9279 0.225009 41.9075 0.24534C41.8871 0.265671 41.877 0.287969 41.877 0.312234V12.3008C41.877 12.3251 41.8871 12.3477 41.9075 12.3677C41.9279 12.388 41.9542 12.3982 41.9871 12.3982H44.809C44.8333 12.3982 44.8557 12.388 44.8761 12.3677C44.8964 12.3477 44.9066 12.3251 44.9066 12.3008V2.84636H46.0916C46.3115 2.84636 46.4986 2.94801 46.6534 3.15099L52.1259 11.1311C52.7125 11.9516 53.5226 12.3739 54.5569 12.3982H59.2722C59.3048 12.3982 59.3291 12.388 59.3456 12.3677C59.3617 12.3477 59.3699 12.3251 59.3699 12.3008V0.312234C59.3699 0.287969 59.3617 0.265671 59.3456 0.24534C59.3288 0.225009 59.3045 0.214844 59.2719 0.214844Z" fill="white"/>
<path d="M79.6675 0.214844H62.3823C62.3498 0.214844 62.3251 0.225009 62.309 0.24534C62.2926 0.265671 62.2847 0.287969 62.2847 0.312234V2.74897C62.2847 2.77324 62.2926 2.79586 62.309 2.81586C62.3251 2.83619 62.3498 2.84636 62.3823 2.84636H69.5161V12.3008C69.5161 12.3251 69.524 12.3477 69.5405 12.3677C69.5566 12.388 69.5813 12.3982 69.6138 12.3982H72.4357C72.4682 12.3982 72.4926 12.388 72.509 12.3677C72.5251 12.3477 72.5333 12.3251 72.5333 12.3008V2.84636H79.6672C79.6997 2.84636 79.726 2.83619 79.7464 2.81586C79.7668 2.79553 79.777 2.77324 79.777 2.74897V0.312234C79.777 0.287969 79.7668 0.265671 79.7464 0.24534C79.7267 0.225009 79.7001 0.214844 79.6675 0.214844Z" fill="white"/>
<path d="M100.627 0.214844H97.8055C97.7812 0.214844 97.7585 0.225009 97.7384 0.24534C97.7181 0.265671 97.7079 0.287969 97.7079 0.312234V4.9906H86.274V0.312234C86.274 0.287969 86.2638 0.265671 86.2434 0.24534C86.223 0.225337 86.1964 0.214844 86.1642 0.214844H83.3423C83.3179 0.214844 83.2953 0.225009 83.2752 0.24534C83.2548 0.265671 83.2446 0.287969 83.2446 0.312234V12.3008C83.2446 12.3251 83.2548 12.3477 83.2752 12.3677C83.2956 12.388 83.3179 12.3982 83.3423 12.3982H86.1642C86.1967 12.3982 86.223 12.388 86.2434 12.3677C86.2638 12.3474 86.274 12.3251 86.274 12.3008V7.62244H97.7079V12.3008C97.7079 12.3251 97.7181 12.3477 97.7384 12.3677C97.7588 12.388 97.7812 12.3982 97.8055 12.3982H100.627C100.66 12.3982 100.686 12.388 100.707 12.3677C100.727 12.3474 100.737 12.3251 100.737 12.3008V0.312234C100.737 0.287969 100.727 0.265671 100.707 0.24534C100.686 0.225009 100.66 0.214844 100.627 0.214844Z" fill="white"/>
<path d="M121.513 0.214844H107.819C106.801 0.214844 105.93 0.568008 105.205 1.27466C104.48 1.98132 104.118 2.83423 104.118 3.83338V8.76752C104.118 9.77487 104.48 10.6317 105.205 11.3384C105.93 12.045 106.801 12.3985 107.819 12.3985H121.513C121.537 12.3985 121.559 12.3884 121.58 12.368C121.6 12.3477 121.61 12.3254 121.61 12.3011V9.86439C121.61 9.83193 121.6 9.80766 121.58 9.79127C121.559 9.7752 121.537 9.767 121.513 9.767H107.819C107.632 9.767 107.473 9.70207 107.343 9.57222C107.212 9.44236 107.147 9.28792 107.147 9.1092V7.62244H121.504C121.536 7.62244 121.561 7.61227 121.577 7.59194C121.593 7.57161 121.601 7.54931 121.601 7.52505V5.08831C121.601 5.05585 121.593 5.03158 121.577 5.01519C121.561 4.99912 121.536 4.99092 121.504 4.99092H107.147V3.50448C107.147 3.32577 107.212 3.17165 107.343 3.04147C107.473 2.91161 107.632 2.84636 107.819 2.84636H121.513C121.537 2.84636 121.559 2.83619 121.58 2.81586C121.6 2.79586 121.61 2.77323 121.61 2.74897V0.312234C121.61 0.287969 121.6 0.265671 121.58 0.24534C121.559 0.225337 121.537 0.214844 121.513 0.214844Z" fill="white"/>
<path d="M142.374 0.214844H125.088C125.056 0.214844 125.031 0.225009 125.015 0.24534C124.999 0.265671 124.991 0.287969 124.991 0.312234V2.74897C124.991 2.77324 124.999 2.79586 125.015 2.81586C125.031 2.83619 125.056 2.84636 125.088 2.84636H132.222V12.3008C132.222 12.3251 132.23 12.3477 132.247 12.3677C132.263 12.388 132.287 12.3982 132.32 12.3982H135.142C135.174 12.3982 135.199 12.388 135.215 12.3677C135.232 12.3477 135.239 12.3251 135.239 12.3008V2.84636H142.373C142.406 2.84636 142.432 2.83619 142.452 2.81586C142.473 2.79553 142.483 2.77324 142.483 2.74897V0.312234C142.483 0.287969 142.473 0.265671 142.452 0.24534C142.432 0.225009 142.406 0.214844 142.374 0.214844Z" fill="white"/>
<path d="M148.943 0.239109C148.927 0.223042 148.903 0.214844 148.87 0.214844H146.048C146.016 0.214844 145.991 0.223042 145.975 0.239109C145.959 0.255505 145.951 0.279771 145.951 0.312234V12.3008C145.951 12.3251 145.959 12.3477 145.975 12.3677C145.991 12.388 146.016 12.3982 146.048 12.3982H148.87C148.903 12.3982 148.927 12.388 148.943 12.3677C148.96 12.3474 148.968 12.3251 148.968 12.3008V0.312234C148.968 0.280099 148.96 0.255505 148.943 0.239109Z" fill="white"/>
<path d="M156.734 3.17567C156.612 3.03762 156.461 2.96843 156.282 2.96843H152.618C152.585 2.96843 152.558 2.95827 152.538 2.93794C152.518 2.91793 152.508 2.89531 152.508 2.87104V0.434305C152.508 0.410039 152.518 0.387741 152.538 0.36741C152.558 0.347407 152.585 0.336914 152.618 0.336914H156.49C157.467 0.336914 158.31 0.731068 159.019 1.51872L159.959 2.65167L158.127 4.85689L156.734 3.17567ZM163.501 1.50659C164.21 0.726805 165.057 0.336914 166.042 0.336914H169.902C169.935 0.336914 169.959 0.345112 169.976 0.36118C169.992 0.377576 170 0.401841 170 0.434305V2.87104C170 2.89531 169.992 2.91793 169.976 2.93794C169.959 2.95827 169.935 2.96843 169.902 2.96843H166.238C166.059 2.96843 165.908 3.03762 165.786 3.17567L163.086 6.41646L165.798 9.68151C165.92 9.81169 166.067 9.87662 166.238 9.87662H169.902C169.935 9.87662 169.959 9.88678 169.976 9.90711C169.992 9.92744 170 9.954 170 9.98614V12.4229C170 12.4471 169.992 12.4698 169.976 12.4898C169.959 12.5101 169.935 12.5203 169.902 12.5203H166.043C165.057 12.5203 164.214 12.1264 163.514 11.3385L161.266 8.63382L159.019 11.3385C158.31 12.1264 157.463 12.5203 156.478 12.5203H152.618C152.585 12.5203 152.56 12.5101 152.544 12.4898C152.528 12.4694 152.52 12.4432 152.52 12.4104V9.97368C152.52 9.94941 152.528 9.92711 152.544 9.90678C152.56 9.88645 152.585 9.87629 152.618 9.87629H156.282C156.453 9.87629 156.604 9.80742 156.734 9.66904L159.385 6.47712L163.501 1.50659Z" fill="white"/>
</svg>
